<svg width="288" height="374" viewBox="0 0 288 374" fill="none" xmlns="http://www.w3.org/2000/svg">
<path d="M46.136 361C45.4107 359.08 44.728 357.203 44.088 355.368C43.448 353.491 42.7867 351.592 42.104 349.672H22.008L17.976 361H11.512C13.2187 356.307 14.8187 351.976 16.312 348.008C17.8053 343.997 19.256 340.2 20.664 336.616C22.1147 333.032 23.544 329.619 24.952 326.376C26.36 323.091 27.832 319.848 29.368 316.648H35.064C36.6 319.848 38.072 323.091 39.48 326.376C40.888 329.619 42.296 333.032 43.704 336.616C45.1547 340.2 46.6267 343.997 48.12 348.008C49.6133 351.976 51.2133 356.307 52.92 361H46.136ZM40.312 344.552C38.9467 340.84 37.5813 337.256 36.216 333.8C34.8933 330.301 33.5067 326.952 32.056 323.752C30.5627 326.952 29.1333 330.301 27.768 333.8C26.4453 337.256 25.1227 340.84 23.8 344.552H40.312ZM68.5415 361.64C64.8722 361.555 62.2695 360.765 60.7335 359.272C59.1975 357.779 58.4295 355.453 58.4295 352.296V312.36L64.3815 311.336V351.336C64.3815 352.317 64.4668 353.128 64.6375 353.768C64.8082 354.408 65.0855 354.92 65.4695 355.304C65.8535 355.688 66.3655 355.987 67.0055 356.2C67.6455 356.371 68.4348 356.52 69.3735 356.648L68.5415 361.64ZM99.1615 344.424C99.1615 340.541 98.2015 337.555 96.2815 335.464C94.3615 333.373 91.8015 332.328 88.6015 332.328C86.8095 332.328 85.4015 332.392 84.3775 332.52C83.3962 332.648 82.6068 332.797 82.0095 332.968V353.96C82.7348 354.557 83.7802 355.133 85.1455 355.688C86.5108 356.243 88.0042 356.52 89.6255 356.52C91.3322 356.52 92.7828 356.221 93.9775 355.624C95.2148 354.984 96.2175 354.131 96.9855 353.064C97.7535 351.955 98.3082 350.675 98.6495 349.224C98.9908 347.731 99.1615 346.131 99.1615 344.424ZM105.37 344.424C105.37 346.941 105.028 349.267 104.346 351.4C103.706 353.533 102.746 355.368 101.466 356.904C100.186 358.44 98.6068 359.635 96.7295 360.488C94.8948 361.341 92.7828 361.768 90.3935 361.768C88.4735 361.768 86.7668 361.512 85.2735 361C83.8228 360.488 82.7348 359.997 82.0095 359.528V372.84H76.0575V328.744C77.4655 328.403 79.2148 328.04 81.3055 327.656C83.4388 327.229 85.8922 327.016 88.6655 327.016C91.2255 327.016 93.5295 327.421 95.5775 328.232C97.6255 329.043 99.3748 330.195 100.826 331.688C102.276 333.181 103.386 335.016 104.154 337.192C104.964 339.325 105.37 341.736 105.37 344.424ZM113.745 361V312.36L119.697 311.336V328.36C120.806 327.933 121.98 327.613 123.217 327.4C124.497 327.144 125.756 327.016 126.993 327.016C129.638 327.016 131.836 327.4 133.585 328.168C135.334 328.893 136.721 329.939 137.745 331.304C138.812 332.627 139.558 334.227 139.985 336.104C140.412 337.981 140.625 340.051 140.625 342.312V361H134.673V343.592C134.673 341.544 134.524 339.795 134.225 338.344C133.969 336.893 133.521 335.72 132.881 334.824C132.241 333.928 131.388 333.288 130.321 332.904C129.254 332.477 127.932 332.264 126.353 332.264C125.713 332.264 125.052 332.307 124.369 332.392C123.686 332.477 123.025 332.584 122.385 332.712C121.788 332.797 121.233 332.904 120.721 333.032C120.252 333.16 119.91 333.267 119.697 333.352V361H113.745ZM161.572 356.712C162.98 356.712 164.217 356.691 165.284 356.648C166.393 356.563 167.31 356.435 168.036 356.264V346.344C167.609 346.131 166.905 345.96 165.924 345.832C164.985 345.661 163.833 345.576 162.468 345.576C161.572 345.576 160.612 345.64 159.588 345.768C158.606 345.896 157.689 346.173 156.836 346.6C156.025 346.984 155.342 347.539 154.788 348.264C154.233 348.947 153.956 349.864 153.956 351.016C153.956 353.149 154.638 354.643 156.004 355.496C157.369 356.307 159.225 356.712 161.572 356.712ZM161.06 326.888C163.449 326.888 165.454 327.208 167.076 327.848C168.74 328.445 170.062 329.32 171.044 330.472C172.068 331.581 172.793 332.925 173.22 334.504C173.646 336.04 173.86 337.747 173.86 339.624V360.424C173.348 360.509 172.622 360.637 171.684 360.808C170.788 360.936 169.764 361.064 168.612 361.192C167.46 361.32 166.201 361.427 164.836 361.512C163.513 361.64 162.19 361.704 160.868 361.704C158.99 361.704 157.262 361.512 155.684 361.128C154.105 360.744 152.74 360.147 151.588 359.336C150.436 358.483 149.54 357.373 148.9 356.008C148.26 354.643 147.94 353 147.94 351.08C147.94 349.245 148.302 347.667 149.028 346.344C149.796 345.021 150.82 343.955 152.1 343.144C153.38 342.333 154.873 341.736 156.58 341.352C158.286 340.968 160.078 340.776 161.956 340.776C162.553 340.776 163.172 340.819 163.812 340.904C164.452 340.947 165.049 341.032 165.604 341.16C166.201 341.245 166.713 341.331 167.14 341.416C167.566 341.501 167.865 341.565 168.036 341.608V339.944C168.036 338.963 167.929 338.003 167.716 337.064C167.502 336.083 167.118 335.229 166.564 334.504C166.009 333.736 165.241 333.139 164.26 332.712C163.321 332.243 162.084 332.008 160.548 332.008C158.585 332.008 156.857 332.157 155.364 332.456C153.913 332.712 152.825 332.989 152.1 333.288L151.396 328.36C152.164 328.019 153.444 327.699 155.236 327.4C157.028 327.059 158.969 326.888 161.06 326.888ZM195.905 316.2C202.134 316.2 206.913 317.395 210.241 319.784C213.612 322.131 215.297 325.651 215.297 330.344C215.297 332.904 214.828 335.101 213.889 336.936C212.993 338.728 211.67 340.2 209.921 341.352C208.214 342.461 206.124 343.272 203.649 343.784C201.174 344.296 198.38 344.552 195.265 344.552H190.337V361H184.129V317.288C185.878 316.861 187.82 316.584 189.953 316.456C192.129 316.285 194.113 316.2 195.905 316.2ZM196.417 321.64C193.772 321.64 191.745 321.704 190.337 321.832V339.24H195.009C197.142 339.24 199.062 339.112 200.769 338.856C202.476 338.557 203.905 338.088 205.057 337.448C206.252 336.765 207.169 335.848 207.809 334.696C208.449 333.544 208.769 332.072 208.769 330.28C208.769 328.573 208.428 327.165 207.745 326.056C207.105 324.947 206.209 324.072 205.057 323.432C203.948 322.749 202.646 322.28 201.153 322.024C199.66 321.768 198.081 321.64 196.417 321.64ZM218.764 344.424C218.764 341.48 219.191 338.92 220.044 336.744C220.897 334.525 222.028 332.691 223.436 331.24C224.844 329.789 226.465 328.701 228.3 327.976C230.135 327.251 232.012 326.888 233.932 326.888C238.412 326.888 241.847 328.296 244.236 331.112C246.625 333.885 247.82 338.131 247.82 343.848C247.82 344.104 247.82 344.445 247.82 344.872C247.82 345.256 247.799 345.619 247.756 345.96H224.972C225.228 349.416 226.231 352.04 227.98 353.832C229.729 355.624 232.46 356.52 236.172 356.52C238.263 356.52 240.012 356.349 241.42 356.008C242.871 355.624 243.959 355.261 244.684 354.92L245.516 359.912C244.791 360.296 243.511 360.701 241.676 361.128C239.884 361.555 237.836 361.768 235.532 361.768C232.631 361.768 230.113 361.341 227.98 360.488C225.889 359.592 224.161 358.376 222.796 356.84C221.431 355.304 220.407 353.491 219.724 351.4C219.084 349.267 218.764 346.941 218.764 344.424ZM241.612 341.16C241.655 338.472 240.972 336.275 239.564 334.568C238.199 332.819 236.3 331.944 233.868 331.944C232.503 331.944 231.287 332.221 230.22 332.776C229.196 333.288 228.321 333.971 227.596 334.824C226.871 335.677 226.295 336.659 225.868 337.768C225.484 338.877 225.228 340.008 225.1 341.16H241.612ZM261.938 327.72H274.546V332.712H261.938V348.072C261.938 349.736 262.066 351.123 262.322 352.232C262.578 353.299 262.962 354.152 263.474 354.792C263.986 355.389 264.626 355.816 265.394 356.072C266.162 356.328 267.058 356.456 268.082 356.456C269.874 356.456 271.303 356.264 272.37 355.88C273.479 355.453 274.247 355.155 274.674 354.984L275.826 359.912C275.229 360.211 274.183 360.573 272.69 361C271.197 361.469 269.49 361.704 267.57 361.704C265.309 361.704 263.431 361.427 261.938 360.872C260.487 360.275 259.314 359.4 258.418 358.248C257.522 357.096 256.882 355.688 256.498 354.024C256.157 352.317 255.986 350.355 255.986 348.136V318.44L261.938 317.416V327.72Z" fill="#1F8FFF"/>
<path d="M142.223 185.891C125.094 185.891 111.159 198.551 111.159 214.111C111.159 221.501 115.621 225.913 123.095 225.913C126.528 225.913 130.294 225.061 133.937 224.238C136.951 223.557 140.068 222.852 142.223 222.852C144.1 222.852 147.062 223.526 149.925 224.177C153.675 225.03 157.554 225.913 161.131 225.913C168.744 225.912 173.289 221.501 173.289 214.111C173.289 198.551 159.353 185.891 142.223 185.891ZM163.064 215.925C163.059 215.928 162.639 216.222 161.13 216.222C158.695 216.222 155.383 215.469 152.179 214.74C148.612 213.927 145.242 213.161 142.223 213.161C138.933 213.161 135.254 213.992 131.696 214.797C128.598 215.498 125.393 216.222 123.095 216.222C121.82 216.222 121.4 215.977 121.394 216C121.372 215.966 121.088 215.511 121.088 214.11C121.088 203.892 130.57 195.58 142.223 195.58C153.878 195.58 163.359 203.892 163.359 214.11C163.359 215.3 163.133 215.84 163.064 215.925Z" fill="#1F8FFF"/>
<path d="M126.765 176.638C126.765 168.109 120.703 161.17 113.251 161.17C105.798 161.17 99.7355 168.109 99.7355 176.638C99.7355 185.167 105.798 192.105 113.251 192.105C120.703 192.105 126.765 185.166 126.765 176.638ZM109.666 176.638C109.666 173.331 111.559 170.86 113.252 170.86C114.944 170.86 116.836 173.331 116.836 176.638C116.836 179.945 114.944 182.415 113.252 182.415C111.558 182.415 109.666 179.944 109.666 176.638Z" fill="#1F8FFF"/>
<path d="M143.124 182.54C150.576 182.54 156.638 175.601 156.638 167.072C156.638 158.543 150.576 151.605 143.124 151.605C135.672 151.605 129.609 158.543 129.609 167.072C129.609 175.601 135.672 182.54 143.124 182.54ZM143.124 161.295C144.816 161.295 146.709 163.766 146.709 167.073C146.709 170.379 144.816 172.85 143.124 172.85C141.431 172.85 139.539 170.379 139.539 167.073C139.539 163.766 141.431 161.295 143.124 161.295Z" fill="#1F8FFF"/>
<path d="M172.997 161.17C165.544 161.17 159.481 168.109 159.481 176.638C159.481 185.167 165.544 192.105 172.997 192.105C180.449 192.105 186.512 185.167 186.512 176.638C186.512 168.109 180.449 161.17 172.997 161.17ZM172.997 182.415C171.305 182.415 169.411 179.944 169.411 176.637C169.411 173.331 171.304 170.86 172.997 170.86C174.689 170.86 176.583 173.331 176.583 176.637C176.583 179.944 174.689 182.415 172.997 182.415Z" fill="#1F8FFF"/>
<path d="M281.566 96.366L153.668 3.03069C150.952 1.0488 147.715 0.00057 144.309 0.00057L144.244 0.00114C144.213 0.00057 144.184 0 144.161 0L144.06 0.00171C144.023 0.00057 143.986 0.00114 143.95 0.00114L143.839 0C143.815 0 143.787 0.00057 143.756 0.00114L143.691 0.00057C140.285 0.00057 137.048 1.0488 134.332 3.03069L6.43503 96.3665C-0.473697 101.408 -1.89247 110.996 3.2733 117.74L13.9892 131.724C16.929 135.56 21.6164 137.849 26.5286 137.849C29.0233 137.849 31.4298 137.277 33.6132 136.188V267.73C33.6132 276.15 40.6335 283 49.2618 283H238.739C247.367 283 254.387 276.15 254.387 267.73V136.188C256.571 137.277 258.977 137.849 261.472 137.849C261.473 137.849 261.472 137.849 261.473 137.849C266.384 137.849 271.072 135.559 274.011 131.724L284.727 117.739C289.893 110.996 288.474 101.408 281.566 96.366ZM238.739 273.31H49.2618C46.1082 273.31 43.5429 270.807 43.5429 267.73V129.224L144.001 55.9142L244.458 129.223V267.73C244.458 270.807 241.892 273.31 238.739 273.31ZM276.775 111.937L266.058 125.92C264.968 127.343 263.297 128.159 261.471 128.159C260.234 128.159 259.052 127.775 258.055 127.047L146.974 45.9836C146.093 45.3407 145.046 45.0192 144.001 45.0192C142.955 45.0192 141.909 45.3407 141.028 45.9836L29.945 127.047C28.948 127.775 27.7663 128.159 26.5286 128.159C24.7039 128.159 23.0316 127.343 21.9411 125.92L11.2258 111.938C9.338 109.473 9.8561 105.969 12.3812 104.127L140.278 10.7918C141.265 10.0713 142.445 9.69114 143.744 9.69114C143.745 9.69114 143.745 9.69114 143.746 9.69114C143.784 9.69114 143.822 9.69171 143.86 9.69057L143.961 9.69172C143.989 9.69229 144.019 9.69229 144.041 9.69172L144.153 9.69057C144.209 9.69057 144.266 9.69114 144.309 9.69057C145.555 9.69057 146.735 10.0713 147.722 10.7918L275.619 104.126C278.144 105.969 278.661 109.473 276.775 111.937Z" fill="#1F8FFF"/>
<path d="M180.759 118.757C166.68 118.757 153.585 124.248 144 134.002C134.416 124.248 121.319 118.757 107.241 118.757C79.0999 118.757 56.205 141.098 56.205 168.561C56.205 181.369 60.8678 194.27 70.0639 206.909C77.2203 216.744 87.1435 226.455 99.558 235.775C120.486 251.484 141.097 260.605 141.964 260.985C142.611 261.269 143.305 261.411 144 261.411C144.612 261.411 145.225 261.301 145.806 261.08C146.677 260.748 167.371 252.779 188.368 237.623C200.827 228.631 210.784 218.963 217.964 208.888C227.142 196.011 231.796 182.443 231.796 168.561C231.796 141.098 208.901 118.757 180.759 118.757ZM144.128 251.265C131.98 245.507 66.1346 212.269 66.1346 168.561C66.1346 146.442 84.5747 128.447 107.241 128.447C120.233 128.447 132.188 134.254 140.041 144.382C140.979 145.592 142.445 146.303 144 146.303C145.556 146.303 147.021 145.592 147.959 144.382C155.812 134.254 167.767 128.447 180.759 128.447C203.426 128.447 221.866 146.442 221.866 168.561C221.866 216.365 156.332 246.138 144.128 251.265Z" fill="#1F8FFF"/>
</svg>
